<?xml version="1.0" encoding="utf-8"?>
<!-- Generator: Adobe Illustrator 23.1.1, SVG Export Plug-In . SVG Version: 6.00 Build 0)  -->
<svg version="1.1" id="Layer_1" xmlns="http://www.w3.org/2000/svg" xmlns:xlink="http://www.w3.org/1999/xlink" x="0px" y="0px"
	 viewBox="0 0 60 24.9" style="enable-background:new 0 0 60 24.9;" xml:space="preserve">
<style type="text/css">
	.st0{fill-rule:evenodd;clip-rule:evenodd;fill:#FFFFFF;}
	.st1{fill-rule:evenodd;clip-rule:evenodd;}
</style>
<g>
	<path class="st0" d="M50.1,15.1c-0.3,0-0.9-0.1-0.9-0.4s0.8-0.2,0.7-0.9c-0.1-0.5-0.6-0.7-1.1-0.7c-1.7,0-2.8,2.2-2.6,4
		c0.1,0.7,0.4,1.5,1.1,1.5c0.5,0,1.3-0.8,1.6-1.9c0.2-0.7,0.9-1.3,1.5-1.3c0.3,0,0.4,0.1,0.5,0.4c0,0.2,0,0.5-0.3,1.6
		c-0.4,0.8-0.4,1.2-0.3,1.5c0.1,0.7,0.4,1.2,0.8,1.5c0.1,0.1,0.2,0.3,0.2,0.3c0,0.2-0.1,0.3-0.3,0.3c-0.1,0-0.2,0-0.3-0.1
		c-1.3-0.5-1.8-1.4-2-2.2c-0.5,0.6-1.1,0.9-1.8,0.9c-1.1,0-2.2-1-2.4-2.3c-0.1-0.5,0-1.1,0.2-1.6c-0.5,0.3-1.1,0.5-1.6,0.5h-0.4
		c-1.1,1.6-2.3,2.7-3.2,3.3c-0.3,0.2-0.7,0.3-0.9,0.3c-0.2,0-0.4-0.1-0.5-0.3c-0.2-0.4-0.4-1-0.5-1.7c-1.2,1.3-2.9,2-3.6,2
		c-0.9,0-1.4-0.5-1.5-1.4v-0.9c0.3-1.9,0.9-3,0.9-3.3c0-0.1-0.1-0.2-0.2-0.2c-0.6,0-2.6,2.1-2.9,3.4L30,18.5
		c-0.2,0.8-0.9,1.3-1.5,1.3c-0.3,0-0.4-0.1-0.5-0.4V19l0.1-0.6c-1.1,0.8-2.2,1.3-2.7,1.3c-0.8,0-1.2-0.4-1.3-1c-0.5,0.7-1.1,1-1.9,1
		c-0.9,0-1.7-0.6-2.2-1.5c-0.6,0.7-1.3,1.4-2.1,1.9c-1.2,0.8-2.6,1.4-4.2,1.4c-1.5,0-2.7-0.8-3.4-1.5c-1-0.9-1.6-2.4-1.7-3.8
		c-0.5-4.2,2.1-9.6,6-12c0.9-0.5,1.9-0.9,2.8-0.9c1.9,0,3.3,1.4,3.5,3c0.2,1.5-0.4,2.7-2.1,3.5c-0.9,0.4-1.2,0.4-1.4,0.2
		c-0.1-0.2,0-0.3,0.2-0.5c1.5-1.3,1.5-2.3,1.4-3.8c-0.1-0.9-0.8-1.5-1.5-1.5c-3,0-7.3,6.7-6.7,11.6c0.3,1.9,1.4,4.1,3.8,4.1
		c0.8,0,1.6-0.3,2.4-0.6c1.3-0.7,2-1.2,2.7-2c-0.2-2.2,1.8-5.1,4.6-5.1c1.3,0,2.3,0.5,2.4,1.5c0.2,1.3-0.9,1.5-1.3,1.5
		c-0.3,0-0.9-0.1-0.9-0.4c-0.1-0.3,0.8-0.2,0.7-0.9c-0.1-0.5-0.6-0.7-1.1-0.7c-1.8,0-2.8,2.5-2.6,4c0.1,0.7,0.4,1.4,1.1,1.4
		c0.5,0,1.3-0.8,1.5-1.9c0.2-0.8,0.9-1.3,1.5-1.3c0.3,0,0.4,0.1,0.5,0.4v0.3c-0.1,0.3-0.3,1.4-0.3,1.6c0,0.2,0.1,0.4,0.4,0.4
		c0.2,0,1.1-0.5,1.9-1.1c0.3-1.5,0.6-3.2,0.6-3.4c0.1-0.6,0.3-1.2,1.5-1.2c0.3,0,0.4,0.1,0.5,0.4v0.3l-0.3,1.5
		c1.1-1.5,2.7-2.5,3.8-2.5c0.4,0,0.8,0.3,0.8,0.7c0,0.3,0,0.7-0.2,1.1c-0.3,0.9-0.8,2.4-1,3.7c0,0.3,0.1,0.7,0.5,0.7
		c0.4,0,1.7-0.5,2.7-1.9l0,0c0-0.2,0-0.3,0-0.5c0-1,0.1-1.9,0.3-2.5c0.2-0.7,1-1.3,1.5-1.3c0.3,0,0.5,0.2,0.5,0.4
		c0,0.1,0,0.3-0.1,0.3c-0.3,1.1-0.6,2.1-0.6,3.2c0,0.6,0.1,1.5,0.3,2c0,0.1,0.1,0.2,0.2,0.2c0.2,0,1.4-1.1,2.2-2.6
		c-0.8-0.5-1.2-1.4-1.2-2.4c0-1.8,1.1-2.7,2.1-2.7c0.9,0,1.5,0.6,1.5,1.8c0,0.8-0.3,1.6-0.7,2.4h0.3c0.7,0,1.1-0.3,1.5-0.6
		c0.1-0.1,0.2-0.2,0.3-0.3c0.8-1.1,2.1-1.9,3.5-1.9c1.2,0,2.3,0.5,2.4,1.5C51.6,14.8,50.5,15.1,50.1,15.1L50.1,15.1z"/>
	<path class="st1" d="M41.9,11.6c-0.3,0-0.4,0.4-0.4,0.9c0,0.7,0.3,1.5,0.8,1.9c0.2-0.5,0.3-0.9,0.3-1.5
		C42.5,12.1,42.1,11.6,41.9,11.6"/>
</g>
</svg>
