<?xml version="1.0" encoding="utf-8"?>
<!-- Generator: Adobe Illustrator 23.1.1, SVG Export Plug-In . SVG Version: 6.00 Build 0)  -->
<svg version="1.1" id="Layer_1" xmlns="http://www.w3.org/2000/svg" xmlns:xlink="http://www.w3.org/1999/xlink" x="0px" y="0px"
	 viewBox="0 0 1000.6 1000.6" style="enable-background:new 0 0 1000.6 1000.6;" xml:space="preserve">
<style type="text/css">
	.st0{fill:#FFCC00;}
	.st1{display:none;filter:url(#wing-shadow);}
	.st2{display:inline;fill:#FFCC00;}
	.st3{fill:#FFFFFF;}
	.st4{fill:#FF6600;}
	.st5{fill:#F83809;}
	.st6{opacity:0.19;stroke:#D1A800;stroke-miterlimit:10;}
	.st7{fill:#FFCC00;stroke:#D1A800;stroke-width:2;stroke-miterlimit:10;}
</style>
<filter  height="200%" id="wing-shadow" width="200%" x="-50%" y="-50%">
	<feOffset  dx="0" dy="0" in="SourceGraphic" result="offOut"></feOffset>
	<feColorMatrix  in="offOut" result="matrixOut" type="matrix" values="0.5 0 0 0 0 0 0.5 0 0 0 0 0 0.5 0 0 0 0 0 1 0">
		</feColorMatrix>
	<feGaussianBlur  in="matrixOut" result="blurOut" stdDeviation="10"></feGaussianBlur>
	<feBlend  in="SourceGraphic" in2="blurOut" mode="normal"></feBlend>
</filter>
<circle class="st0" cx="409.1" cy="263.4" r="237.3"/>
<polygon class="st0" points="273.5,419.4 273.5,456.6 248.1,492.2 215.9,524.5 192.1,556.7 171.8,590.6 159.9,629.5 148.1,670.2 
	143,712.6 143,756.7 151.5,800.8 166.7,841.4 190.5,875.3 219.3,907.5 251.5,926.2 292.2,944.8 337.9,958.4 378.6,968.6 
	434.5,973.7 487.1,975.3 537.9,977 593.9,975.3 644.7,972 687.1,965.2 731.2,951.6 775.3,938.1 812.5,919.4 851.5,897.4 
	887.1,868.6 919.3,826.2 938,780.4 953.2,714.3 961.7,666.8 960,612.6 958.3,560 951.5,507.5 939.7,460 917.6,443.1 888.8,446.5 
	868.5,468.5 851.5,492.2 821,505.8 795.6,507.5 765.1,510.9 729.5,512.6 693.9,512.6 656.6,512.6 627.8,512.6 595.6,509.2 
	565.1,499 543,475.3 539.6,444.8 539.6,426.1 "/>
<g class="st1">
	<polygon class="st2" points="487.8,524.2 489,528.2 491.2,530.7 494.2,532.7 498,534 502.5,534.5 506.8,534 511.3,533 515,531.3 
		518.3,529.7 521,528 523.8,525.3 526.2,522.5 528,519.5 529.5,515.8 529.8,512.7 530.2,510.2 528.7,510.2 526.2,511.8 523.2,512.8 
		519.3,513.8 516.7,514.3 513.2,514.3 509.8,513.3 506.5,511.3 504,510.5 501.3,509.7 498.5,510 495,510.5 492.8,511.7 490.5,513.5 
		488.7,516.8 487.5,519.5 487.3,522 	"/>
</g>
<ellipse cx="344.7" cy="227.8" rx="28.8" ry="32.2"/>
<circle class="st3" cx="354.9" cy="212.6" r="6.8"/>
<ellipse transform="matrix(0.342 -0.9397 0.9397 0.342 -40.814 302.4092)" cx="195.5" cy="180.3" rx="25.4" ry="18.6"/>
<circle class="st3" cx="202.3" cy="166.8" r="3.4"/>
<polygon class="st4" points="93.8,336.3 110.8,349.9 134.5,366.8 156.5,377 187.1,385.5 214.2,387.1 241.3,387.1 270.1,383.8 
	266.7,353.2 259.9,329.5 248.1,307.5 232.8,288.8 217.6,275.3 202.3,263.4 190.5,258.3 171.8,263.4 148.1,265.1 126,263.4 
	102.3,258.3 83.7,248.2 68.4,238 54.8,229.5 43,231.2 39.6,246.5 48.1,271.9 63.3,297.3 76.9,317.7 "/>
<polygon class="st5" points="270.1,383.8 241.3,387.1 214.2,387.1 187.1,385.5 156.5,377 134.5,366.8 110.8,349.9 93.8,336.3 
	78.6,339.7 70.1,351.6 76.9,365.1 93.8,378.7 114.2,392.2 134.5,399 161.6,404.1 188.8,404.1 212.5,400.7 239.6,393.9 "/>
<path id="wing_shadow" class="st6" d="M556.5,630.6c-36.5-18.1-113.3-26.1-159.6,32.7c-51,64.9-3.1,140.3,1.1,145.1
	c4.2,4.8,59.9,53.7,129.7,51.1c69.8-2.5,264.1-43.4,268.6-238.3C796.2,621.3,677.7,690.9,556.5,630.6z"/>
<path class="st7" d="M545.9,602.2C509.4,584,432.6,576,386.3,634.9c-51,64.9-3.1,140.3,1.1,145.1c4.2,4.8,59.9,53.7,129.7,51.1
	s264.1-43.4,268.6-238.3C785.7,592.9,667.1,662.5,545.9,602.2z"/>
</svg>
