<?xml version="1.0" encoding="utf-8"?>
<!-- Generator: Adobe Illustrator 23.1.1, SVG Export Plug-In . SVG Version: 6.00 Build 0)  -->
<svg version="1.1" xmlns="http://www.w3.org/2000/svg" xmlns:xlink="http://www.w3.org/1999/xlink" x="0px" y="0px"
	 viewBox="0 0 1000.6 1000.6" style="enable-background:new 0 0 1000.6 1000.6;" xml:space="preserve">
<style type="text/css">
	.st0{fill:#FFCC00;}
	.st1{fill:#FFFFFF;}
	.st2{fill:#F83809;}
	.st3{display:none;fill:#FF6600;}
	.st4{fill:#FF6600;}
	.st5{opacity:0.19;stroke:#D1A800;stroke-miterlimit:10;}
	.st6{fill:#FFCC00;stroke:#D1A800;stroke-width:2;stroke-miterlimit:10;}
</style>
<g id="head_1_">
	<circle id="head" class="st0" cx="409.1" cy="263.4" r="237.3"/>
</g>
<g id="eyes">
	<ellipse id="right_eye" cx="344.7" cy="227.8" rx="28.8" ry="32.2"/>
	<circle id="right_eye_white" class="st1" cx="354.9" cy="212.6" r="6.8"/>
	
		<ellipse id="left_eye" transform="matrix(0.342 -0.9397 0.9397 0.342 -40.814 302.4092)" cx="195.5" cy="180.3" rx="25.4" ry="18.6"/>
	<circle id="left_eye_white" class="st1" cx="202.3" cy="166.8" r="3.4"/>
</g>
<g id="beak">
	<path id="bottom" class="st2" d="M270.1,383.8c0,0-59.1,28.3-120.9,18c-25.1-4.2-55.8-14.6-72.4-36.7
		C39.6,304.5,224.2,358.1,270.1,383.8z"/>
	<polygon id="top_old" class="st3" points="93.8,336.3 110.8,349.9 134.5,366.8 156.5,377 187.1,385.5 214.2,387.1 241.3,387.1 
		270.1,383.8 266.7,353.2 259.9,329.5 248.1,307.5 232.8,288.8 217.6,275.3 202.3,263.4 190.5,258.3 171.8,263.4 148.1,265.1 
		126,263.4 102.3,258.3 83.7,248.2 68.4,238 54.8,229.5 43,231.2 39.6,246.5 48.1,271.9 63.3,297.3 76.9,317.7 	"/>
	<path id="top" class="st4" d="M270.1,383.8c0,0,0.9-90.1-79.7-125.4c0,0-67.3,25.7-129.4-24.9c-14.3-10-24.6-0.2-21.5,13.1
		c6.3,30.1,42,90.8,83.6,112.2C156.5,377,172.8,393.2,270.1,383.8z"/>
</g>
<g id="body_1_">
	<path class="st0" d="M276.6,453.7c-6.5,20-22.8,34.2-40.8,51.8c-25.4,13.4-229.1,317.4,67,442.5c236.7,85.9,558.5-16.2,613.8-118.4
		c55.3-102.2,50.1-307,25.5-359.3c-12.2-24.5-23.1-23.9-31.3-24.4c-16.2,0.1-30.1,45.5-49.9,52.3c-71,32.9-306.1,52.3-326.5-42.9
		C534.6,455.3,331.8,420.3,276.6,453.7z"/>
</g>
<g id="wing_1_">
	<path id="wing_shadow" class="st5" d="M556.5,630.6c-36.5-18.1-113.3-26.1-159.6,32.7c-51,64.9-3.1,140.3,1.1,145.1
		c4.2,4.8,59.9,53.7,129.7,51.1c69.8-2.5,264.1-43.4,268.6-238.3C796.2,621.3,677.7,690.9,556.5,630.6z"/>
	<path id="wing" class="st6" d="M545.9,602.2C509.4,584,432.6,576,386.3,634.9c-51,64.9-3.1,140.3,1.1,145.1
		c4.2,4.8,59.9,53.7,129.7,51.1s264.1-43.4,268.6-238.3C785.7,592.9,667.1,662.5,545.9,602.2z"/>
</g>
</svg>
